<svg width="16" height="16" viewBox="0 0 16 16" fill="none" xmlns="http://www.w3.org/2000/svg">
<path d="M13.8493 12C14.3488 12 14.7461 11.6857 15.1029 11.2461C15.8332 10.3463 14.6341 9.6272 14.1768 9.27507C13.7119 8.91707 13.1929 8.71427 12.6666 8.66667M11.9999 7.33333C12.9204 7.33333 13.6666 6.58714 13.6666 5.66667C13.6666 4.74619 12.9204 4 11.9999 4" stroke="#EDEDED" stroke-linecap="round"/>
<path d="M2.15056 12C1.65102 12 1.2537 11.6857 0.896942 11.2461C0.166641 10.3463 1.3657 9.6272 1.82301 9.27507C2.2879 8.91707 2.80697 8.71427 3.33325 8.66667M3.66658 7.33333C2.74611 7.33333 1.99992 6.58714 1.99992 5.66667C1.99992 4.74619 2.74611 4 3.66658 4" stroke="#EDEDED" stroke-linecap="round"/>
<path d="M5.38912 10.0741C4.70793 10.4953 2.9219 11.3553 4.00972 12.4315C4.5411 12.9573 5.13293 13.3333 5.877 13.3333H10.1229C10.8669 13.3333 11.4587 12.9573 11.9901 12.4315C13.0779 11.3553 11.2919 10.4953 10.6107 10.0741C9.01333 9.08632 6.98646 9.08632 5.38912 10.0741Z" stroke="#EDEDED" stroke-linecap="round" stroke-linejoin="round"/>
<path d="M10.3333 5.00008C10.3333 6.28875 9.28859 7.33341 7.99993 7.33341C6.71126 7.33341 5.66658 6.28875 5.66658 5.00008C5.66658 3.71141 6.71126 2.66675 7.99993 2.66675C9.28859 2.66675 10.3333 3.71141 10.3333 5.00008Z" stroke="#EDEDED"/>
</svg>
