<svg width="20" height="20" viewBox="0 0 20 20" fill="none" xmlns="http://www.w3.org/2000/svg">
<path d="M12.4609 10.3292C12.3347 10.8514 11.7381 11.2205 10.5449 11.9587C9.39142 12.6722 8.81475 13.029 8.34992 12.8856C8.15778 12.8262 7.98271 12.7137 7.84152 12.5585C7.5 12.1833 7.5 11.4556 7.5 10.0002C7.5 8.54474 7.5 7.81698 7.84152 7.44179C7.98271 7.28667 8.15778 7.17406 8.34992 7.11477C8.81475 6.97136 9.39142 7.32814 10.5449 8.04169C11.7381 8.77983 12.3347 9.14891 12.4609 9.67116C12.513 9.88674 12.513 10.1136 12.4609 10.3292Z" stroke="#EDEDED" stroke-width="1.25" stroke-linejoin="round"/>
<path d="M2.08328 10.0002C2.08328 6.26821 2.08328 4.40224 3.24265 3.24286C4.40202 2.0835 6.268 2.0835 9.99995 2.0835C13.7319 2.0835 15.5979 2.0835 16.7573 3.24286C17.9166 4.40224 17.9166 6.26821 17.9166 10.0002C17.9166 13.7321 17.9166 15.5981 16.7573 16.7575C15.5979 17.9168 13.7319 17.9168 9.99995 17.9168C6.268 17.9168 4.40202 17.9168 3.24265 16.7575C2.08328 15.5981 2.08328 13.7321 2.08328 10.0002Z" stroke="#EDEDED" stroke-width="1.25"/>
</svg>
