<svg width="16" height="16" viewBox="0 0 16 16" fill="none" xmlns="http://www.w3.org/2000/svg">
<path d="M10.6667 9.33325C10.6667 9.88552 11.1144 10.3333 11.6667 10.3333C12.2189 10.3333 12.6667 9.88552 12.6667 9.33325C12.6667 8.78099 12.2189 8.33325 11.6667 8.33325C11.1144 8.33325 10.6667 8.78099 10.6667 9.33325Z" stroke="#848484"/>
<path d="M6.66666 4.66667H10.6667C12.5523 4.66667 13.4951 4.66667 14.0809 5.25245C14.6667 5.83824 14.6667 6.78107 14.6667 8.66667V10C14.6667 11.8856 14.6667 12.8284 14.0809 13.4142C13.4951 14 12.5523 14 10.6667 14H6.66666C4.1525 14 2.89543 14 2.11437 13.2189C1.33333 12.4379 1.33333 11.1808 1.33333 8.66667V7.33333C1.33333 4.81917 1.33333 3.5621 2.11437 2.78105C2.89543 2 4.1525 2 6.66666 2H9.33333C9.95333 2 10.2633 2 10.5177 2.06815C11.2078 2.25308 11.7469 2.79218 11.9319 3.48236C12 3.73669 12 4.04669 12 4.66667" stroke="#848484" stroke-linecap="round"/>
</svg>
