<svg width="24" height="25" viewBox="0 0 24 25" fill="none" xmlns="http://www.w3.org/2000/svg">
<path d="M16 14.5C16 15.3284 16.6716 16 17.5 16C18.3284 16 19 15.3284 19 14.5C19 13.6716 18.3284 13 17.5 13C16.6716 13 16 13.6716 16 14.5Z" stroke="#F92126" stroke-width="1.5"/>
<path d="M10 7.5H16C18.8284 7.5 20.2426 7.5 21.1213 8.37868C22 9.25736 22 10.6716 22 13.5V15.5C22 18.3284 22 19.7426 21.1213 20.6213C20.2426 21.5 18.8284 21.5 16 21.5H10C6.22876 21.5 4.34315 21.5 3.17157 20.3284C2 19.1569 2 17.2712 2 13.5V11.5C2 7.72876 2 5.84315 3.17157 4.67157C4.34315 3.5 6.22876 3.5 10 3.5H14C14.93 3.5 15.395 3.5 15.7765 3.60222C16.8117 3.87962 17.6204 4.68827 17.8978 5.72354C18 6.10504 18 6.57003 18 7.5" stroke="#F92126" stroke-width="1.5" stroke-linecap="round"/>
</svg>
